<?xml version="1.0" encoding="utf-8"?>
<!-- Generator: Adobe Illustrator 18.1.0, SVG Export Plug-In . SVG Version: 6.00 Build 0)  -->
<svg version="1.1" id="Layer_1" xmlns="http://www.w3.org/2000/svg" xmlns:xlink="http://www.w3.org/1999/xlink" x="0px" y="0px"
	 width="91px" height="99px" viewBox="0 0 91 99" enable-background="new 0 0 91 99" xml:space="preserve">
<g>
	<path fill="#FFFFFF" d="M37.1,85.4c-6.1,0-11.7-3-15.1-8.1v0l0,0l0-0.1l0,0C17.3,70.3,18,61.2,23.5,55c3.5-3.9,8.4-6.1,13.6-6.1
		c2.9,0,5.8,0.7,8.3,2c7.4,3.8,11.3,12.1,9.5,20.2l0,0.1c-1.3,5.6-5.2,10.3-10.5,12.6C42,84.9,39.6,85.4,37.1,85.4L37.1,85.4z
		 M25.2,76.8V77l0.1,0.1c2.9,3.5,7.2,5.5,11.8,5.5c1.3,0,2.7-0.2,4-0.5l0.5-0.1l-9.7-9.7L25.2,76.8z M39,75.6l5.3,5.3l0.2-0.1
		c3.6-2,6.3-5.3,7.4-9.3l0.1-0.2l-4.7-3.9L39,75.6z M37.1,51.7c-5.3,0-10.4,2.8-13.2,7.4c-2.8,4.6-3,10.4-0.5,15.1l0.2,0.3l7.7-5.2
		c0.2-0.2,0.5-0.2,0.8-0.2c0.4,0,0.7,0.1,1,0.4l4.1,4.1l9.1-9.1c0.3-0.3,0.6-0.4,1-0.4c0.3,0,0.6,0.1,0.9,0.3l4.4,3.7l0-0.7
		c0-0.1,0-0.1,0-0.2C52.5,58.7,45.6,51.7,37.1,51.7L37.1,51.7z"/>
	<path fill="#FFFFFF" d="M35.4,66.9c-2.6,0-4.8-2.1-4.8-4.8s2.1-4.8,4.8-4.8s4.8,2.1,4.8,4.8S38,66.9,35.4,66.9z M35.4,60.1
		c-1.1,0-2,0.9-2,2s0.9,2,2,2c1.1,0,2-0.9,2-2S36.5,60.1,35.4,60.1z"/>
	<path fill="#FFFFFF" d="M5.1,98.9c-2.6,0-4.8-2.1-4.8-4.8V38.6c0-0.8,0.6-1.4,1.4-1.4h2v-5.4c0-0.8,0.6-1.4,1.4-1.4h18.8V1.5
		c0-0.8,0.6-1.4,1.4-1.4h43.8c0.2,0,0.3,0,0.4,0.1c0.1,0,0.1,0,0.1,0c0.1,0.1,0.3,0.1,0.4,0.2L90.2,19c0.1,0.1,0.2,0.3,0.3,0.4
		c0,0,0,0.1,0.1,0.1c0.1,0.1,0.1,0.3,0.1,0.4l0,0l0,0.1l0,55.5c0,0.8-0.6,1.4-1.4,1.4H73.8v17.1c0,2.6-2.1,4.8-4.8,4.8H5.1z
		 M3.1,94.1c0,1.1,0.9,2,2,2h64c1.1,0,2-0.9,2-2v-2h-68V94.1z M3.1,89.4h68V45H25.3c-0.4,0-0.7-0.1-1-0.4l-4.6-4.6H3.1V89.4z
		 M73.8,74.2h14.1V21.4H69.1c-0.8,0-1.4-0.6-1.4-1.4V2.9h-41v39.3h4V28.4c0-0.8,0.6-1.4,1.4-1.4h23.6c0.8,0,1.4,0.6,1.4,1.4v13.8
		h4.5l8-16.1c0.3-0.4,0.7-0.7,1.2-0.7c0.5,0,1,0.3,1.2,0.7l11.8,23.6c0.2,0.4,0.2,0.9-0.1,1.3c-0.3,0.4-0.7,0.7-1.2,0.7h-8.7V74.2z
		 M64.6,42.2h7.9c0.8,0,1.4,0.6,1.4,1.4V49h6.5l-9.5-19.1L64.6,42.2z M33.4,42.2h20.8V29.8H33.4V42.2z M6.5,37.2h13.8
		c0.4,0,0.7,0.1,1,0.4l2.7,2.7v-7.1H6.5V37.2z M70.5,18.6h15.3l-7.8-7.1l-7.5-6.9V18.6z"/>
	<rect x="34" y="13.6" fill="#FFFFFF" width="2.8" height="2.8"/>
	<rect x="40.7" y="13.6" fill="#FFFFFF" width="2.8" height="2.8"/>
	<rect x="47.5" y="13.6" fill="#FFFFFF" width="2.8" height="2.8"/>
</g>
</svg>
