<?xml version="1.0" encoding="utf-8"?>
<!-- Generator: Adobe Illustrator 18.1.0, SVG Export Plug-In . SVG Version: 6.00 Build 0)  -->
<svg version="1.1" id="Layer_1" xmlns="http://www.w3.org/2000/svg" xmlns:xlink="http://www.w3.org/1999/xlink" x="0px" y="0px"
	 width="110px" height="90px" viewBox="0 0 110 90" enable-background="new 0 0 110 90" xml:space="preserve">
<g>
	<path fill="#FFFFFF" d="M97.3,76.4c-0.7,0-1.2-0.6-1.2-1.2c0-0.7,0.6-1.2,1.2-1.2h7.3c1.3,0,2.4-1.1,2.4-2.4V53.1
		c0-1.3-1.1-2.4-2.4-2.4h-7.3c-0.7,0-1.2-0.6-1.2-1.2c0-0.7,0.6-1.2,1.2-1.2h7.3c2.7,0,4.9,2.2,4.9,4.9v18.4c0,2.7-2.2,4.9-4.9,4.9
		H97.3z"/>
	<path fill="#FFFFFF" d="M5.4,76.4c-2.7,0-4.9-2.2-4.9-4.9V53.1c0-2.7,2.2-4.9,4.9-4.9h4.3v-2.4c0-0.7,0.6-1.2,1.2-1.2
		c0.7,0,1.2,0.6,1.2,1.2v2.4h15.3c0.7,0,1.2,0.6,1.2,1.2c0,0.7-0.6,1.2-1.2,1.2h-22c-1.3,0-2.4,1.1-2.4,2.4v18.4
		c0,1.3,1.1,2.4,2.4,2.4h22c0.7,0,1.2,0.6,1.2,1.2c0,0.7-0.6,1.2-1.2,1.2H5.4z"/>
	<path fill="#FFFFFF" d="M10.9,69.1c-0.7,0-1.2-0.6-1.2-1.2v-11c0-0.7,0.6-1.2,1.2-1.2c0.7,0,1.2,0.6,1.2,1.2v11
		C12.2,68.5,11.6,69.1,10.9,69.1z"/>
	<path fill="#FFFFFF" d="M3.6,10.3c-1.7,0-3.1-1.4-3.1-3.1V3.5c0-1.7,1.4-3.1,3.1-3.1h27.6c1.7,0,3.1,1.4,3.1,3.1v3.7
		c0,1.7-1.4,3.1-3.1,3.1H3.6z M3,7.8h28.7V3H3V7.8z"/>
	<path fill="#FFFFFF" d="M55,25c-1.7,0-3.1-1.4-3.1-3.1v-3.7c0-1.7,1.4-3.1,3.1-3.1h27.6c1.7,0,3.1,1.4,3.1,3.1v3.7
		c0,1.7-1.4,3.1-3.1,3.1H55z M54.4,22.5h28.7v-4.9H54.4V22.5z"/>
	<path fill="#FFFFFF" d="M42.1,10.3c-1.7,0-3.1-1.4-3.1-3.1V3.5c0-1.7,1.4-3.1,3.1-3.1h14.7c1.7,0,3.1,1.4,3.1,3.1v3.7
		c0,1.7-1.4,3.1-3.1,3.1H42.1z M41.6,7.8h15.9V3H41.6V7.8z"/>
	<path fill="#FFFFFF" d="M29.3,25c-1.7,0-3.1-1.4-3.1-3.1v-3.7c0-1.7,1.4-3.1,3.1-3.1H44c1.7,0,3.1,1.4,3.1,3.1v3.7
		c0,1.7-1.4,3.1-3.1,3.1H29.3z M28.7,22.5h15.9v-4.9H28.7V22.5z"/>
	<path fill="#FFFFFF" d="M10.9,28.7c-0.7,0-1.2-0.6-1.2-1.2V25H3.6c-1.7,0-3.1-1.4-3.1-3.1v-3.7c0-1.7,1.4-3.1,3.1-3.1h14.7
		c1.7,0,3.1,1.4,3.1,3.1v3.7c0,1.7-1.4,3.1-3.1,3.1h-6.1v2.4C12.2,28.1,11.6,28.7,10.9,28.7z M3,22.5h15.9v-4.9H3V22.5z"/>
	<path fill="#FFFFFF" d="M67.9,10.3c-1.7,0-3.1-1.4-3.1-3.1V3.5c0-1.7,1.4-3.1,3.1-3.1h7.3c1.7,0,3.1,1.4,3.1,3.1v3.7
		c0,1.7-1.4,3.1-3.1,3.1H67.9z M67.3,7.8h8.5V3h-8.5V7.8z"/>
	<path fill="#FFFFFF" d="M93.6,25c-1.7,0-3.1-1.4-3.1-3.1v-3.7c0-1.7,1.4-3.1,3.1-3.1h12.9c1.7,0,3.1,1.4,3.1,3.1v3.7
		c0,1.7-1.4,3.1-3.1,3.1H93.6z M93,22.5h14v-4.9H93V22.5z"/>
	<path fill="#FFFFFF" d="M86.2,10.3c-1.7,0-3.1-1.4-3.1-3.1V3.5c0-1.7,1.4-3.1,3.1-3.1h20.2c1.7,0,3.1,1.4,3.1,3.1v3.7
		c0,1.7-1.4,3.1-3.1,3.1H86.2z M85.6,7.8H107V3H85.6V7.8z"/>
	<path fill="#FFFFFF" d="M10.9,39.7c-0.7,0-1.2-0.6-1.2-1.2v-3.7c0-0.7,0.6-1.2,1.2-1.2c0.7,0,1.2,0.6,1.2,1.2v3.7
		C12.2,39.1,11.6,39.7,10.9,39.7z"/>
	<path fill="#FFFFFF" d="M70,89.5c-1.1,0-2.2-0.6-2.8-1.6c-0.6-1-1.2-1.9-1.7-2.9l-0.2-0.3l-0.4,0C64,84.9,63,85,62,85
		c-1,0-1.9-0.1-2.9-0.2l-0.4,0l-0.2,0.3c-0.6,1-1.1,2-1.7,2.9c-0.6,1-1.6,1.6-2.8,1.6c-0.4,0-0.8-0.1-1.2-0.2l-5.1-2.1
		c-1.5-0.6-2.3-2.2-1.9-3.8c0.3-1.1,0.6-2.2,0.8-3.3l0.1-0.4l-0.3-0.2c-1.5-1.2-2.9-2.6-4.1-4.1l-0.2-0.3l-0.4,0.1
		c-1.1,0.3-2.2,0.6-3.3,0.8c-0.2,0.1-0.5,0.1-0.8,0.1c-1.3,0-2.5-0.8-3-2l-2.1-5.1c-0.6-1.5,0-3.2,1.3-4c1-0.6,1.9-1.1,2.9-1.7
		l0.3-0.2l0-0.4c-0.2-1.9-0.2-3.9,0-5.8l0-0.4l-0.3-0.2c-1-0.6-2-1.1-2.9-1.7c-1.4-0.8-1.9-2.5-1.3-4l2.1-5.1c0.5-1.2,1.7-2,3-2
		c0.3,0,0.5,0,0.8,0.1c1.1,0.3,2.2,0.6,3.3,0.8l0.4,0.1l0.2-0.3c1.2-1.5,2.6-2.9,4.1-4.1l0.3-0.2l-0.1-0.4c-0.3-1.1-0.6-2.2-0.8-3.3
		c-0.4-1.5,0.4-3.2,1.9-3.8l5.1-2.1c0.4-0.2,0.8-0.2,1.2-0.2c1.1,0,2.2,0.6,2.8,1.6c0.6,0.9,1.1,1.9,1.7,2.9l0.2,0.3l0.4,0
		c1-0.1,1.9-0.2,2.9-0.2c1,0,1.9,0.1,2.9,0.2l0.4,0l0.2-0.3c0.6-1,1.1-2,1.7-2.9c0.6-1,1.6-1.6,2.8-1.6c0.4,0,0.8,0.1,1.2,0.2
		l5.1,2.1c1.5,0.6,2.3,2.2,1.9,3.8c-0.3,1.1-0.6,2.2-0.8,3.3l-0.1,0.4l0.3,0.2c1.5,1.2,2.9,2.6,4.1,4.1l0.2,0.3l0.4-0.1
		c1.1-0.3,2.2-0.6,3.3-0.8c0.2-0.1,0.5-0.1,0.8-0.1c1.3,0,2.5,0.8,3,2l2.1,5.1c0.6,1.5,0,3.2-1.3,4c-1,0.6-1.9,1.1-2.9,1.7l-0.3,0.2
		l0,0.4c0.2,1.9,0.2,3.9,0,5.8l0,0.4l0.3,0.2c1,0.6,2,1.1,2.9,1.7c1.4,0.8,1.9,2.5,1.3,4l-2.1,5.1c-0.5,1.2-1.7,2-3,2
		c-0.3,0-0.5,0-0.8-0.1c-1.1-0.3-2.2-0.6-3.3-0.8l-0.4-0.1l-0.2,0.3c-1.2,1.5-2.6,2.9-4.1,4.1l-0.3,0.2l0.1,0.4
		c0.3,1.1,0.6,2.2,0.8,3.3c0.4,1.5-0.4,3.2-1.9,3.8l-5.1,2.1C70.8,89.5,70.4,89.5,70,89.5z M42.1,72.3c1,0,1.9,0.5,2.5,1.2
		c1.1,1.4,2.4,2.7,3.8,3.8c1,0.8,1.5,2.1,1.1,3.4c-0.3,1.1-0.6,2.1-0.8,3.2l-0.1,0.5l5.6,2.3l0.3-0.4c0.5-0.9,1.1-1.9,1.7-2.8
		c0.6-1,1.6-1.6,2.8-1.6c0.1,0,0.3,0,0.4,0C60.2,82,61.1,82,62,82c0.9,0,1.8-0.1,2.7-0.2c0.1,0,0.3,0,0.4,0c1.1,0,2.2,0.6,2.8,1.6
		c0.5,0.9,1.1,1.9,1.7,2.8l0.3,0.4l5.6-2.3l-0.1-0.5c-0.3-1-0.5-2.1-0.8-3.2c-0.3-1.3,0.1-2.6,1.1-3.4c1.4-1.1,2.7-2.4,3.8-3.8
		c0.6-0.8,1.5-1.2,2.5-1.2c0.3,0,0.6,0,0.8,0.1c1.1,0.3,2.1,0.6,3.2,0.8l0.5,0.1l2.3-5.6l-0.4-0.3c-0.9-0.6-1.9-1.1-2.8-1.7
		c-1.1-0.7-1.8-1.9-1.6-3.2c0.2-1.8,0.2-3.6,0-5.4c-0.2-1.3,0.5-2.5,1.6-3.2c0.9-0.5,1.9-1.1,2.8-1.7l0.4-0.3l-2.3-5.6L86,46.7
		c-1,0.3-2.1,0.5-3.2,0.8c-0.3,0.1-0.6,0.1-0.8,0.1c-1,0-1.9-0.5-2.5-1.2c-1.1-1.4-2.4-2.7-3.8-3.8c-1-0.8-1.5-2.1-1.1-3.4
		c0.3-1.1,0.6-2.1,0.8-3.2l0.1-0.5l-5.6-2.3l-0.3,0.4c-0.6,0.9-1.1,1.9-1.7,2.8c-0.6,1-1.6,1.6-2.8,1.6c-0.1,0-0.3,0-0.4,0
		c-0.9-0.1-1.8-0.2-2.7-0.2c-0.9,0-1.8,0.1-2.7,0.2c-0.1,0-0.3,0-0.4,0c-1.1,0-2.2-0.6-2.8-1.6c-0.5-0.9-1.1-1.9-1.7-2.8l-0.3-0.4
		l-5.6,2.3l0.1,0.5c0.3,1,0.5,2.1,0.8,3.2c0.3,1.3-0.1,2.6-1.1,3.4c-1.4,1.1-2.7,2.4-3.8,3.8c-0.6,0.8-1.5,1.2-2.5,1.2
		c-0.3,0-0.6,0-0.8-0.1c-1.1-0.3-2.1-0.6-3.2-0.8l-0.5-0.1l-2.3,5.6l0.4,0.3c0.9,0.6,1.9,1.1,2.8,1.7c1.1,0.7,1.8,1.9,1.6,3.2
		c-0.2,1.8-0.2,3.6,0,5.4c0.2,1.3-0.5,2.5-1.6,3.2c-0.9,0.5-1.9,1.1-2.8,1.7l-0.4,0.3l2.3,5.6l0.5-0.1c1-0.3,2.1-0.5,3.2-0.8
		C41.5,72.3,41.8,72.3,42.1,72.3z"/>
	<path fill="#FFFFFF" d="M62,73.3c-1.7,0-3.5-0.3-5.1-1c-3.3-1.4-5.8-3.9-7.2-7.2c-2.8-6.8,0.4-14.6,7.2-17.4c1.6-0.7,3.3-1,5.1-1
		c5.4,0,10.2,3.2,12.3,8.2c2.8,6.8-0.4,14.6-7.2,17.4C65.5,72.9,63.8,73.3,62,73.3z M62,49.6c-1.4,0-2.7,0.3-4,0.8
		c-2.6,1.1-4.6,3.1-5.6,5.6c-1.1,2.6-1.1,5.4,0,8c1.1,2.6,3.1,4.6,5.6,5.6c1.3,0.5,2.6,0.8,4,0.8c1.4,0,2.7-0.3,4-0.8
		c2.6-1.1,4.6-3.1,5.6-5.6c1.1-2.6,1.1-5.4,0-8C70,52.1,66.3,49.6,62,49.6z"/>
</g>
</svg>
