<?xml version="1.0" encoding="utf-8"?>
<!-- Generator: Adobe Illustrator 18.1.0, SVG Export Plug-In . SVG Version: 6.00 Build 0)  -->
<svg version="1.1" id="Layer_1" xmlns="http://www.w3.org/2000/svg" xmlns:xlink="http://www.w3.org/1999/xlink" x="0px" y="0px"
	 width="117px" height="103px" viewBox="0 0 117 103" enable-background="new 0 0 117 103" xml:space="preserve">
<path fill="#FFFFFF" d="M109.4,80.2c-0.2-0.2-0.4-0.3-0.6-0.5c-0.1-0.1-0.2-0.1-0.3-0.2c-0.1-0.1-0.2-0.1-0.4-0.2
	c-0.2-0.1-0.3-0.1-0.5-0.2c-0.1,0-0.1,0-0.2-0.1c-0.2,0-0.5-0.1-0.7-0.1c0,0,0,0-0.1,0c-1,0-2,0.3-2.8,1.1l0,0c0,0-0.1,0-0.1,0.1
	l-2.9-2.9L98.6,75c0.8-1.3,1.6-2.6,2.2-3.9c0-0.1,0.1-0.1,0.1-0.2c0.2-0.4,0.4-0.8,0.6-1.2c0-0.1,0.1-0.1,0.1-0.2
	c0.2-0.4,0.3-0.9,0.5-1.3c0,0,0-0.1,0.1-0.1c0.2-0.5,0.3-0.9,0.5-1.4c0,0,0,0,0-0.1c0.6-1.9,1-3.9,1.3-5.9c0,0,0,0,0,0c0,0,0,0,0,0
	c0.1-0.6,0.1-1.3,0.2-1.9c0-0.1,0-0.2,0-0.3c0-0.6,0-1.1,0-1.7c0-0.1,0-0.2,0-0.2c0-4.9-1.1-9.7-3.2-14.2c0,0,0,0,0,0c0,0,0,0,0,0
	c-0.2-0.4-0.4-0.9-0.7-1.3c0,0,0,0,0,0c-0.2-0.4-0.5-0.9-0.7-1.3c0,0,0,0,0,0c-0.2-0.4-0.5-0.8-0.8-1.2c0,0,0,0,0,0
	c-0.3-0.4-0.5-0.8-0.8-1.2c0,0,0,0,0,0c-0.3-0.4-0.6-0.8-0.9-1.2c0,0,0,0,0,0c-0.3-0.4-0.6-0.8-0.9-1.1c0,0,0,0,0,0
	c-0.3-0.4-0.7-0.7-1-1.1c0,0,0,0,0,0c-1-1-2-2-3.1-2.9c-1.3-1.1-2.8-2.1-4.2-2.9c0,0-0.1,0-0.1-0.1c-0.5-0.3-1-0.6-1.5-0.8
	c-0.1,0-0.2-0.1-0.3-0.1c-1.8-0.9-3.6-1.6-5.4-2.1c0,0,0,0,0,0c0,0,0,0,0,0c-1.4-0.4-2.9-0.7-4.3-1c0,0,0,0,0,0
	c-1.4-0.2-2.9-0.4-4.4-0.4c0,0,0,0,0,0c-1.4,0-2.9,0-4.3,0.2c0,0-0.1,0-0.1,0c-0.7,0.1-1.4,0.2-2.1,0.3c0,0,0,0-0.1,0
	c-0.7,0.1-1.4,0.3-2.1,0.4c-0.1,0-0.1,0-0.2,0c-0.6,0.2-1.2,0.3-1.9,0.5c-0.1,0-0.2,0-0.2,0.1c-0.7,0.2-1.3,0.4-1.9,0.7
	c-0.1,0-0.1,0.1-0.2,0.1c-0.6,0.2-1.1,0.5-1.7,0.7c-0.1,0.1-0.2,0.1-0.4,0.2c-0.6,0.3-1.2,0.6-1.8,0.9c-0.1,0-0.1,0.1-0.2,0.1
	c-0.5,0.3-1,0.6-1.5,0.9c-0.1,0.1-0.3,0.2-0.4,0.3c-0.6,0.4-1.1,0.8-1.7,1.2c0,0-0.1,0.1-0.1,0.1c-0.5,0.4-1,0.8-1.5,1.2
	c-0.1,0.1-0.3,0.2-0.4,0.3c-0.5,0.5-1,0.9-1.5,1.4c-0.5,0.5-1.1,1.1-1.6,1.7c-0.1,0.1-0.2,0.2-0.3,0.4c-0.5,0.6-0.9,1.1-1.4,1.7
	C44.1,37,44,37.1,44,37.2c-0.4,0.6-0.8,1.1-1.1,1.7c-0.1,0.1-0.1,0.2-0.2,0.3c-0.4,0.6-0.7,1.3-1.1,1.9c-0.1,0.1-0.1,0.3-0.2,0.4
	c-0.3,0.7-0.7,1.3-1,2c0,0,0,0,0,0c-0.3,0.7-0.6,1.4-0.8,2.1c0,0.1-0.1,0.2-0.1,0.3c-0.2,0.7-0.5,1.4-0.6,2.1c0,0.1,0,0.2-0.1,0.2
	c-0.2,0.7-0.4,1.4-0.5,2.2c0,0,0,0,0,0.1c-0.1,0.7-0.3,1.5-0.3,2.2c0,0.1,0,0.2,0,0.3c-0.2,1.5-0.2,3.1-0.2,4.6c0,0,0,0.1,0,0.1
	c0,0.8,0.1,1.6,0.1,2.3c0,0,0,0.1,0,0.1c0.2,1.6,0.4,3.1,0.8,4.7c0,0,0,0.1,0,0.1c0.5,2.1,1.2,4.1,2.2,6.1c0,0,0,0,0,0
	c0.7,1.4,1.5,2.8,2.4,4.2c0,0,0,0,0,0c0.3,0.4,0.5,0.8,0.8,1.2c0,0.1,0.1,0.1,0.1,0.2c0.3,0.4,0.7,0.9,1,1.3c0.4,0.5,0.9,1,1.4,1.6
	c0,0,0,0,0,0c0,0,0,0,0,0c0.4,0.4,0.8,0.9,1.2,1.3c0,0,0,0,0,0c3,2.9,6.5,5.2,10.2,6.7c0,0,0,0,0,0c4.1,1.7,8.5,2.6,12.9,2.6
	c0.1,0,0.1,0,0.2,0c0.5,0,1,0,1.5,0c0.1,0,0.2,0,0.3,0c0.5,0,1-0.1,1.4-0.1c0.1,0,0.2,0,0.3,0c3.1-0.3,6.2-1.1,9.2-2.4
	c0,0,0.1,0,0.1-0.1c0.4-0.2,0.8-0.4,1.3-0.6c0.1-0.1,0.2-0.1,0.3-0.2c0.4-0.2,0.7-0.3,1.1-0.5c0.2-0.1,0.4-0.2,0.6-0.3
	c0.3-0.1,0.5-0.3,0.8-0.4c0.5-0.3,0.9-0.5,1.3-0.8l5.2,5.2c-0.2,0.2-0.3,0.4-0.5,0.6c-0.1,0.1-0.2,0.3-0.2,0.4
	c0,0.1-0.1,0.1-0.1,0.2c-0.1,0.2-0.2,0.4-0.2,0.6c0,0,0,0,0,0c-0.1,0.5-0.2,1-0.1,1.5c0,0,0,0,0,0c0,0.3,0.1,0.5,0.2,0.7
	c0,0,0,0.1,0,0.1c0.1,0.2,0.2,0.4,0.3,0.6c0,0,0,0.1,0.1,0.1c0.2,0.2,0.3,0.5,0.5,0.7l7.5,7.5l1.9-1.9l-7.5-7.5
	c-0.1-0.1-0.2-0.2-0.2-0.4c0-0.1,0-0.1-0.1-0.2c0-0.1,0-0.1,0-0.2c0-0.2,0-0.4,0-0.5c0,0,0,0,0,0c0-0.1,0.1-0.2,0.1-0.2
	c0.1-0.1,0.1-0.2,0.2-0.3l7.6-7.6l1.8-1.8c0.5-0.5,1.4-0.5,1.9,0l7.5,7.5l1.9-1.9L109.4,80.2z M94,36.7c1.3,1.5,2.5,3.1,3.4,4.8
	c0,0,0,0,0,0c1,1.7,1.8,3.6,2.4,5.5c0,0,0,0,0,0c0.4,1.3,0.8,2.6,1,3.9c0.1,0.5,0.2,0.9,0.2,1.4c0,0,0,0,0,0
	c0.1,0.5,0.1,0.9,0.2,1.4c0,0.1,0,0.2,0,0.3c0,0.4,0.1,0.7,0.1,1.1c0,0.5,0,1,0,1.5s0,1,0,1.5c0,0.4,0,0.7-0.1,1.1
	c0,0.1,0,0.2,0,0.3c0,0.5-0.1,0.9-0.2,1.4c0,0,0,0,0,0c-0.1,0.5-0.1,0.9-0.2,1.4c-0.5,2.4-1.2,4.8-2.2,7H94V36.7z M74.2,27.8h6.5
	c0.2,0.1,0.3,0.1,0.5,0.2v6.8h-6.9V27.8z M41.2,49.7c0.7-2.8,1.7-5.5,3.1-7.9c0,0,0,0,0-0.1c0.3-0.5,0.5-0.9,0.8-1.3
	c0-0.1,0.1-0.1,0.1-0.2c0.3-0.4,0.5-0.8,0.8-1.2c0-0.1,0.1-0.1,0.1-0.2c0.3-0.4,0.6-0.8,0.9-1.2c0,0,0-0.1,0.1-0.1
	c1-1.3,2.2-2.5,3.4-3.6c0.1-0.1,0.2-0.1,0.3-0.2c0.3-0.3,0.6-0.5,1-0.8c0.1-0.1,0.2-0.2,0.4-0.3c0.3-0.2,0.6-0.5,0.9-0.7
	c0.1-0.1,0.3-0.2,0.4-0.3c0.3-0.2,0.6-0.4,0.9-0.6c0.1-0.1,0.3-0.2,0.4-0.3c0.3-0.2,0.7-0.4,1-0.6c0.1-0.1,0.2-0.1,0.4-0.2
	c0.5-0.3,0.9-0.5,1.4-0.7c0,0,0,0,0,0c2,2.2,3.2,5.4,3.6,9.4l0.1,1.1h-5.9c-0.8,0-1.5,0.7-1.5,1.5v8.4H41.3
	C41.3,49.6,41.2,49.6,41.2,49.7C41.2,49.7,41.2,49.7,41.2,49.7z M40.5,59.5C40.5,59.5,40.5,59.5,40.5,59.5c0-0.4-0.1-0.9-0.1-1.3
	c0-0.5,0-0.9,0-1.4c0-0.7,0-1.3,0.1-2c0-0.1,0-0.2,0-0.3c0-0.6,0.1-1.3,0.2-1.9c0,0,0,0,0,0h13.2v6.9H40.5z M43.2,69.4
	c-1-2.2-1.7-4.5-2.2-6.9h14.5c0.8,0,1.5-0.7,1.5-1.5V42.6h5.9c0.8,0,1.5-0.7,1.5-1.5c0-5.4-1.3-9.9-3.8-13.1
	c0.4-0.2,0.8-0.3,1.3-0.4c0.2-0.1,0.4-0.1,0.6-0.2c0.3-0.1,0.5-0.1,0.8-0.2c0.2-0.1,0.4-0.1,0.6-0.2c0.3-0.1,0.5-0.1,0.8-0.2
	c0.2,0,0.4-0.1,0.6-0.1c0.3-0.1,0.5-0.1,0.8-0.1c0.2,0,0.4-0.1,0.6-0.1c0.3,0,0.6-0.1,0.8-0.1c0.2,0,0.4,0,0.6-0.1
	c0.3,0,0.6-0.1,1-0.1c0.2,0,0.3,0,0.5,0c0.5,0,1,0,1.5,0c0.1,0,0.2,0,0.3,0c0,0,0,0.1,0,0.1v9.9c0,0.8,0.7,1.5,1.5,1.5h9.9
	c0.8,0,1.5-0.7,1.5-1.5v-7c0,0,0,0,0,0c0.6,0.3,1.2,0.6,1.7,0.9c0.1,0,0.2,0.1,0.3,0.2c0.5,0.3,1.1,0.6,1.6,1c0,0,0,0,0.1,0
	c1.2,0.8,2.3,1.6,3.3,2.5c0,0,0,0,0,0v35.6H43.2z M90.9,79.9c-0.4,0.4-0.8,0.7-1.3,1c-0.1,0-0.1,0.1-0.2,0.1c-1,0.7-2,1.4-3,2
	c-0.1,0.1-0.2,0.1-0.3,0.2c-0.4,0.2-0.9,0.5-1.3,0.7c-0.1,0.1-0.2,0.1-0.3,0.2c-0.5,0.3-1.1,0.5-1.7,0.8c0,0,0,0,0,0
	c-0.5,0.2-1.1,0.4-1.6,0.6c-0.2,0.1-0.3,0.1-0.5,0.2c-0.4,0.1-0.9,0.3-1.3,0.4c-0.2,0-0.3,0.1-0.5,0.1c-0.6,0.2-1.2,0.3-1.8,0.4
	c0,0-0.1,0-0.1,0c-0.6,0.1-1.1,0.2-1.7,0.3c-0.2,0-0.4,0-0.5,0.1c-0.5,0.1-0.9,0.1-1.4,0.1c-0.2,0-0.4,0-0.5,0
	c-0.6,0-1.2,0.1-1.9,0.1c-0.6,0-1.3,0-1.9-0.1c-0.2,0-0.4,0-0.5,0c-0.5,0-0.9-0.1-1.4-0.1c-0.2,0-0.4,0-0.5-0.1
	c-0.6-0.1-1.1-0.2-1.7-0.3c0,0-0.1,0-0.1,0c-0.6-0.1-1.2-0.3-1.8-0.4c-0.2,0-0.3-0.1-0.5-0.1c-0.4-0.1-0.9-0.3-1.3-0.4
	c-0.2-0.1-0.3-0.1-0.5-0.2c-0.5-0.2-1.1-0.4-1.6-0.6c0,0,0,0-0.1,0c-0.6-0.2-1.1-0.5-1.7-0.8c-0.1-0.1-0.2-0.1-0.3-0.2
	c-0.4-0.2-0.9-0.5-1.3-0.7c-0.1-0.1-0.2-0.1-0.3-0.2c-1.1-0.6-2.1-1.3-3-2c-0.1,0-0.1-0.1-0.2-0.1c-0.4-0.3-0.8-0.7-1.3-1
	c-0.1-0.1-0.1-0.1-0.2-0.2C49.9,78.8,49,78,48.2,77c0,0,0,0,0-0.1c-0.4-0.4-0.8-0.9-1.1-1.4c0-0.1-0.1-0.1-0.1-0.2
	c-0.8-1-1.5-2-2.1-3.1h52.5c0,0,0,0,0,0c-0.6,1.1-1.4,2.1-2.1,3.1c0,0.1-0.1,0.1-0.1,0.2c-0.4,0.5-0.7,0.9-1.1,1.4c0,0,0,0-0.1,0.1
	c-0.8,0.9-1.7,1.8-2.6,2.6C91,79.7,90.9,79.8,90.9,79.9z M96.3,87.7l-4.9-4.9c2.1-1.6,4-3.5,5.6-5.6l3.9,3.9l1,1L96.3,87.7z
	 M25.4,47.8h-6.3c-0.9,0-1.6,0.7-1.6,1.6v6.3c0,0.9,0.7,1.6,1.6,1.6h6.3c0.9,0,1.6-0.7,1.6-1.6v-6.3C27,48.5,26.3,47.8,25.4,47.8z
	 M23.8,54.1h-3.2v-3.2h3.2V54.1z M82.6,49.6h-9.9c-0.8,0-1.5,0.7-1.5,1.5v9.9c0,0.8,0.7,1.5,1.5,1.5h9.9c0.8,0,1.5-0.7,1.5-1.5v-9.9
	C84.1,50.2,83.4,49.6,82.6,49.6z M81.1,59.5h-6.9v-6.9h6.9V59.5z M25.4,92.1c-0.9,0-1.6-0.7-1.6-1.6c0-0.9,0.7-1.6,1.6-1.6h3.2h23.7
	c-1.6-0.9-3.2-2-4.6-3.2H36.3c1.9-2.1,3-5.1,3.3-9c-0.8-1.2-1.5-2.4-2.1-3.7H11.1c-1.7,0-3.2-1.4-3.2-3.2v-6.3h4.8h21.6
	c-0.2-1.1-0.4-2.1-0.5-3.2H14.3V25.6c0,0,0.1,0.1,0.1,0.1c0.1,0.1,0.2,0.3,0.3,0.4c0.1,0.1,0.1,0.2,0.2,0.2c0.1,0.1,0.3,0.3,0.5,0.4
	c0.1,0,0.1,0.1,0.2,0.1c0.2,0.2,0.4,0.3,0.7,0.5c0,0,0.1,0.1,0.1,0.1c0.2,0.1,0.4,0.2,0.6,0.3c0.1,0,0.2,0.1,0.3,0.1
	c0.2,0.1,0.3,0.2,0.5,0.2c0.1,0,0.2,0.1,0.3,0.1c0.2,0.1,0.3,0.1,0.5,0.2c0.1,0,0.2,0.1,0.3,0.1c0.2,0,0.4,0.1,0.6,0.1
	c0.1,0,0.2,0,0.3,0c0.3,0,0.6,0.1,0.9,0.1s0.6,0,0.9-0.1c0.1,0,0.2,0,0.3,0c0.2,0,0.4-0.1,0.6-0.1c0.1,0,0.2-0.1,0.3-0.1
	c0.2,0,0.4-0.1,0.5-0.2c0.1,0,0.2-0.1,0.3-0.1c0.2-0.1,0.3-0.1,0.5-0.2c0.1,0,0.2-0.1,0.3-0.1c0.2-0.1,0.4-0.2,0.6-0.3
	c0,0,0.1-0.1,0.1-0.1c0.2-0.2,0.5-0.3,0.7-0.5c0.1,0,0.1-0.1,0.2-0.1c0.2-0.1,0.3-0.3,0.5-0.4c0.1-0.1,0.1-0.1,0.2-0.2
	c0.1-0.1,0.2-0.3,0.4-0.4c0,0,0.1-0.1,0.1-0.1c0,0,0.1,0.1,0.1,0.1c0.1,0.1,0.2,0.3,0.3,0.4c0.1,0.1,0.1,0.2,0.2,0.2
	c0.1,0.1,0.3,0.3,0.5,0.4c0.1,0,0.1,0.1,0.2,0.1c0.2,0.2,0.4,0.3,0.7,0.5c0,0,0.1,0.1,0.1,0.1c0.2,0.1,0.4,0.2,0.6,0.3
	c0.1,0,0.2,0.1,0.3,0.1c0.2,0.1,0.3,0.2,0.5,0.2c0.1,0,0.2,0.1,0.3,0.1c0.2,0.1,0.3,0.1,0.5,0.2c0.1,0,0.2,0.1,0.3,0.1
	c0.2,0,0.4,0.1,0.6,0.1c0.1,0,0.2,0,0.3,0c0.3,0,0.6,0.1,0.9,0.1s0.6,0,0.9-0.1c0.1,0,0.2,0,0.3,0c0.2,0,0.4-0.1,0.6-0.1
	c0.1,0,0.2-0.1,0.3-0.1c0.2,0,0.4-0.1,0.5-0.2c0.1,0,0.2-0.1,0.3-0.1c0.2-0.1,0.3-0.1,0.5-0.2c0.1,0,0.2-0.1,0.3-0.1
	c0.2-0.1,0.4-0.2,0.6-0.3c0,0,0.1-0.1,0.1-0.1c0.2-0.2,0.5-0.3,0.7-0.5c0.1,0,0.1-0.1,0.2-0.1c0.2-0.1,0.3-0.3,0.5-0.4
	c0.1-0.1,0.1-0.2,0.2-0.2c0.1-0.1,0.2-0.3,0.3-0.4c0,0,0.1-0.1,0.1-0.1c0,0,0.1,0.1,0.1,0.1c0.1,0.1,0.2,0.3,0.4,0.4
	c0.1,0.1,0.1,0.1,0.2,0.2c0.1,0.2,0.3,0.3,0.5,0.4c0.1,0,0.1,0.1,0.2,0.1c0.2,0.2,0.4,0.4,0.7,0.5c0,0,0.1,0.1,0.1,0.1
	c0.2,0.1,0.4,0.2,0.6,0.3c0.1,0,0.2,0.1,0.3,0.1c0.2,0.1,0.3,0.2,0.5,0.2c0.1,0,0.2,0.1,0.3,0.1c0.2,0.1,0.3,0.1,0.5,0.2
	c0.1,0,0.2,0.1,0.3,0.1c0.2,0,0.4,0.1,0.6,0.1c0.1,0,0.2,0,0.3,0c0.3,0,0.6,0.1,0.9,0.1c0.1,0,0.2,0,0.3,0c2.5-2.2,5.3-4.1,8.2-5.5
	c-0.4-0.7-0.7-1.5-0.7-2.4v-4.8h9.5v4.1c1-0.2,2.1-0.4,3.2-0.5v-3.6h9.5v3.7c1.1,0.1,2.1,0.3,3.2,0.6v-4.3h9.5v4.8
	c0,1-0.3,1.9-0.9,2.7c0.9,0.5,1.9,1,2.8,1.6c0.8-1.2,1.3-2.7,1.3-4.3v-6.3c0-0.1,0-0.2,0-0.3c0,0,0,0,0,0c0-0.1-0.1-0.3-0.1-0.4
	c0,0,0-0.1,0-0.1c-0.1-0.1-0.1-0.2-0.2-0.3l0,0L78.8,0.7c-0.3-0.3-0.7-0.5-1.1-0.5h-8.4c0,0,0,0,0,0s0,0,0,0h-8.4h-8.4H39.6h-8.4
	c0,0,0,0,0,0c0,0,0,0,0,0h-8.4h-8.4c-0.4,0-0.8,0.2-1.1,0.5L0.5,13.4c0,0,0,0,0,0c-0.1,0.1-0.2,0.2-0.2,0.3c0,0,0,0.1,0,0.1
	c-0.1,0.1-0.1,0.3-0.1,0.4c0,0,0,0,0,0c0,0.1,0,0.2,0,0.3v6.3c0,3.2,2,6,4.8,7.3V62c0,0,0,0,0,0v7.9c0,3.5,2.8,6.3,6.3,6.3h25.3
	c-0.4,6.3-3,9.5-7.9,9.5h-3.2c-2.6,0-4.8,2.1-4.8,4.7c0,2.6,2.1,4.8,4.8,4.8h41.2c1.3,0,2.5-0.5,3.3-1.4c-3.6-0.1-7.1-0.7-10.5-1.8
	H25.4z M77,3.4l9.5,9.5h-8l-6.3-9.5H77z M68.4,3.4l6.3,9.5h-8.6L63,3.4H68.4z M53.9,3.4h5.7l3.2,9.5h-8.9V3.4z M41.2,3.4h9.5v9.5
	h-9.5V3.4z M41.2,16.1h9.5v4.8c0,2.6-2.1,4.8-4.7,4.8c-2.6,0-4.8-2.1-4.8-4.8V16.1z M11.1,60.4H8V28.8c0.3,0,0.6,0,0.9-0.1
	c0.1,0,0.2,0,0.3,0c0.2,0,0.4-0.1,0.6-0.1c0.1,0,0.2-0.1,0.3-0.1c0.2,0,0.4-0.1,0.5-0.2c0.1,0,0.2-0.1,0.3-0.1
	c0.1,0,0.2-0.1,0.3-0.1V60.4z M25.4,20.8c0,2.6-2.1,4.8-4.8,4.8c-2.6,0-4.7-2.1-4.7-4.8v-4.8h9.5V20.8z M38.1,20.8
	c0,2.6-2.1,4.8-4.7,4.8c-2.6,0-4.8-2.1-4.8-4.8v-4.8h9.5V20.8z M30.3,9.7l2.1-6.2h5.7v9.5h-8.9L30.3,9.7z M23.6,3.4H29l-3.2,9.5
	h-8.6L23.6,3.4z M15,3.4h4.8L19.4,4l-6,9h-8L15,3.4z M6.8,25.4C6.8,25.4,6.8,25.4,6.8,25.4c-2.1-0.5-3.6-2.4-3.6-4.6v-4.8h9.5v4.8
	c0,0.3,0,0.6-0.1,0.9c0,0,0,0.1,0,0.1c-0.1,0.2-0.1,0.5-0.2,0.7c-0.1,0.2-0.1,0.3-0.2,0.4c0,0.1-0.1,0.1-0.1,0.2
	c-0.2,0.3-0.4,0.6-0.6,0.8c0,0,0,0,0,0c-0.9,1-2.1,1.6-3.5,1.6c-0.2,0-0.5,0-0.7-0.1C7.1,25.5,7,25.5,6.8,25.4z M27,33.5
	c0-0.9-0.7-1.6-1.6-1.6h-6.3c-0.9,0-1.6,0.7-1.6,1.6v6.3c0,0.9,0.7,1.6,1.6,1.6h6.3c0.9,0,1.6-0.7,1.6-1.6V33.5z M23.8,38.3h-3.2
	v-3.2h3.2V38.3z M39.7,33.6c0.1,0.7,0.3,1.4,0.5,2c0.8-1.2,1.7-2.3,2.6-3.3c0-0.1,0-0.2,0-0.3c0-0.9-0.7-1.6-1.6-1.6
	c-6.9,0-11.1,4.7-11.1,12.7c0,0.9,0.7,1.6,1.6,1.6h3.2v2.6c0.5-1.9,1.2-3.8,2-5.7c-0.1,0-0.3-0.1-0.4-0.1h-3.1
	C33.7,38.3,35,34.3,39.7,33.6z"/>
</svg>
