<?xml version="1.0" encoding="utf-8"?>
<!-- Generator: Adobe Illustrator 18.1.0, SVG Export Plug-In . SVG Version: 6.00 Build 0)  -->
<svg version="1.1" id="Layer_1" xmlns="http://www.w3.org/2000/svg" xmlns:xlink="http://www.w3.org/1999/xlink" x="0px" y="0px"
	 width="100px" height="100px" viewBox="0 0 100 100" enable-background="new 0 0 100 100" xml:space="preserve">
<g>
	<rect x="10" y="90.6" fill="#FFFFFF" width="2.6" height="2.6"/>
	<rect x="16.4" y="90.6" fill="#FFFFFF" width="2.6" height="2.6"/>
	<rect x="22.9" y="90.6" fill="#FFFFFF" width="2.6" height="2.6"/>
	<rect x="77.7" y="90.6" fill="#FFFFFF" width="12.3" height="2.6"/>
	<path fill="#FFFFFF" d="M8.1,99.7c-4.3,0-7.8-3.5-7.8-7.8v-7.8h3.2V30.6c0-4.3,3.5-7.8,7.8-7.8H39v-0.3C39,10.3,49,0.3,61.3,0.3
		s22.3,10,22.3,22.3v0.3h5.2c4.3,0,7.8,3.5,7.8,7.8v53.5h3.2v7.8c0,4.3-3.5,7.8-7.8,7.8H8.1z M2.9,91.9c0,2.8,2.3,5.1,5.1,5.1h83.9
		c2.8,0,5.1-2.3,5.1-5.1v-5.1h-9.7V31.9h-5.9l-0.1,0.2c-3.7,7.7-11.6,12.7-20.1,12.7s-16.4-5-20.1-12.7l-0.1-0.2H12.6v52.2h25
		l0.4,0.4c1.8,1.8,4.3,2.8,6.9,2.8h10.2c2.6,0,5-1,6.9-2.8l0.4-0.4h21.2v2.6H63.4l-0.1,0.1c-2.3,2-5.2,3.1-8.2,3.1H44.9
		c-3,0-6-1.1-8.2-3.1l-0.1-0.1H2.9V91.9z M93.9,84.2V30.6c0-2.8-2.3-5.1-5.1-5.1h-5.4l0,0.3c-0.2,1.1-0.4,2.2-0.7,3.2l-0.1,0.4h4.6
		c1.6,0,2.9,1.3,2.9,2.9v51.9H93.9z M10,84.2V32.3c0-1.6,1.3-2.9,2.9-2.9h27.2L40,28.9c-0.3-1-0.5-2-0.7-3.2l0-0.3h-28
		c-2.8,0-5.1,2.3-5.1,5.1v53.5H10z M42.6,16.6c-0.6,2-1,4-1,6c0,10.8,8.8,19.7,19.7,19.7c1.5,0,3.1-0.2,4.6-0.6l0.3-0.1l-6-18
		l-17.6-7.3L42.6,16.6z M68.7,40.8l0.3-0.1C76.3,37.5,81,30.4,81,22.6c0-4.6-1.7-9.1-4.7-12.7l-0.2-0.3L62.8,22.9L68.7,40.8z M61,21
		L74.2,7.8L74,7.6c-3.6-3-8.1-4.7-12.7-4.7c-7.4,0-14,4.1-17.4,10.6l-0.2,0.3L61,21z"/>
	<path fill="#FFFFFF" d="M50,80.3c-2.5,0-4.5-2-4.5-4.5c0-0.3,0.1-0.7,0.2-1.1l0.1-0.2l-7.3-4.9l-0.2,0.1c-0.8,0.6-1.7,0.9-2.7,0.9
		s-1.9-0.3-2.7-0.9l-0.2-0.1l-7.3,4.9l0.1,0.2c0.1,0.4,0.2,0.8,0.2,1.1c0,2.5-2,4.5-4.5,4.5s-4.5-2-4.5-4.5s2-4.5,4.5-4.5
		c1,0,1.9,0.3,2.7,0.9l0.2,0.1l7.3-4.9l-0.1-0.2C31,66.8,31,66.5,31,66.1c0-2.5,2-4.5,4.5-4.5s4.5,2,4.5,4.5c0,0.3,0,0.7-0.2,1.1
		l-0.1,0.2l7.3,4.9l0.2-0.1c0.8-0.6,1.7-0.9,2.7-0.9c0.8,0,1.7,0.2,2.4,0.7l0.2,0.1l9.4-7.5l-0.1-0.2c-0.2-0.5-0.3-1-0.3-1.5
		c0-2.5,2-4.5,4.5-4.5s4.5,2,4.5,4.5c0,0.4-0.1,0.8-0.2,1.3l-0.1,0.2l6,4.5l0.2-0.1c0.7-0.5,1.6-0.8,2.5-0.8c2.5,0,4.5,2,4.5,4.5
		s-2,4.5-4.5,4.5s-4.5-2-4.5-4.5c0-0.4,0.1-0.9,0.2-1.3l0.1-0.2l-6-4.5l-0.2,0.1c-0.7,0.5-1.6,0.8-2.5,0.8c-0.8,0-1.7-0.2-2.4-0.7
		l-0.2-0.1l-9.4,7.5l0.1,0.2c0.2,0.5,0.3,1,0.3,1.5C54.5,78.3,52.5,80.3,50,80.3z M50,73.9c-1.1,0-1.9,0.9-1.9,1.9s0.9,1.9,1.9,1.9
		c1.1,0,1.9-0.9,1.9-1.9S51.1,73.9,50,73.9z M21,73.9c-1.1,0-1.9,0.9-1.9,1.9s0.9,1.9,1.9,1.9c1.1,0,1.9-0.9,1.9-1.9
		S22,73.9,21,73.9z M79,70.7c-1.1,0-1.9,0.9-1.9,1.9s0.9,1.9,1.9,1.9c1.1,0,1.9-0.9,1.9-1.9S80.1,70.7,79,70.7z M35.5,64.2
		c-1.1,0-1.9,0.9-1.9,1.9s0.9,1.9,1.9,1.9s1.9-0.9,1.9-1.9S36.5,64.2,35.5,64.2z M66.1,61c-1.1,0-1.9,0.9-1.9,1.9s0.9,1.9,1.9,1.9
		c1.1,0,1.9-0.9,1.9-1.9S67.2,61,66.1,61z"/>
	<path fill="#FFFFFF" d="M16.4,57.8v-22h25.2v22H16.4z M39,55.1V38.4H19v16.8H39z"/>
	<rect x="22.9" y="42.2" fill="#FFFFFF" width="12.3" height="2.6"/>
	<rect x="22.9" y="48.7" fill="#FFFFFF" width="12.3" height="2.6"/>
	<rect x="45.5" y="51.9" fill="#FFFFFF" width="2.6" height="2.6"/>
	<rect x="51.9" y="51.9" fill="#FFFFFF" width="31.6" height="2.6"/>
</g>
</svg>
