<?xml version="1.0" encoding="utf-8"?>
<!-- Generator: Adobe Illustrator 18.1.0, SVG Export Plug-In . SVG Version: 6.00 Build 0)  -->
<svg version="1.1" id="Layer_1" xmlns="http://www.w3.org/2000/svg" xmlns:xlink="http://www.w3.org/1999/xlink" x="0px" y="0px"
	 width="115px" height="115px" viewBox="-240 363.9 115 115" enable-background="new -240 363.9 115 115" xml:space="preserve">
<g>
	<path fill="#FFFFFF" d="M-143.9,375h-77.3c-4.3,0-7.7,3.5-7.7,7.7V460c0,4.3,3.5,7.7,7.7,7.7h77.3c4.3,0,7.7-3.5,7.7-7.7v-77.3
		C-136.1,378.5-139.6,375-143.9,375z M-221.1,378.1h77.3c2.6,0,4.6,2.1,4.6,4.6v4.6h-86.5v-4.6
		C-225.8,380.2-223.7,378.1-221.1,378.1z M-206.2,460.7c-0.2-0.6-0.7-1-1.3-1.1l-7.4-0.9V449l7.4-0.9c0.6-0.1,1.1-0.5,1.3-1.1
		c0.5-1.8,1.2-3.5,2.1-5.1c0.3-0.5,0.3-1.2-0.1-1.7l-4.6-5.9l6.8-6.8l5.9,4.6c0.5,0.4,1.2,0.4,1.7,0.1c1.6-0.9,3.3-1.6,5.1-2.1
		c0.6-0.2,1-0.7,1.1-1.3l0.9-7.4h9.6l0.9,7.4c0.1,0.6,0.5,1.1,1.1,1.3c1.8,0.5,3.5,1.2,5.1,2.1c0.5,0.3,1.2,0.2,1.7-0.1l5.9-4.6
		l6.8,6.8l-4.6,5.9c-0.4,0.5-0.4,1.2-0.1,1.7c0.9,1.6,1.6,3.3,2.1,5.1c0.2,0.6,0.7,1,1.3,1.1l7.4,0.9v9.6l-7.4,0.9
		c-0.6,0.1-1.1,0.5-1.3,1.1c-0.4,1.4-0.9,2.7-1.5,4h-7.1c2.3-3.1,3.5-6.9,3.5-10.8c0-10.2-8.3-18.5-18.5-18.5s-18.5,8.3-18.5,18.5
		c0,3.9,1.2,7.7,3.5,10.8h-7.1C-205.3,463.4-205.8,462.1-206.2,460.7z M-171.5,464.7h-22c-2.9-2.9-4.5-6.8-4.4-10.8
		c0-8.5,6.9-15.5,15.5-15.5s15.5,6.9,15.5,15.5C-167,457.9-168.6,461.8-171.5,464.7z M-143.9,464.7h-13c0.3-0.7,0.6-1.4,0.8-2.1
		l7.8-1c0.8-0.1,1.4-0.8,1.4-1.5v-12.4c0-0.8-0.6-1.4-1.4-1.5l-7.8-1c-0.4-1.3-1-2.6-1.6-3.9l4.8-6.2c0.5-0.6,0.4-1.5-0.1-2
		l-8.7-8.7c-0.6-0.6-1.4-0.6-2-0.1l-6.2,4.8c-1.2-0.6-2.5-1.2-3.9-1.6l-1-7.8c-0.1-0.8-0.8-1.4-1.5-1.4h-12.4
		c-0.8,0-1.4,0.6-1.5,1.4l-1,7.8c-1.3,0.4-2.6,1-3.9,1.6l-6.2-4.8c-0.6-0.5-1.5-0.4-2,0.1l-8.7,8.7c-0.6,0.6-0.6,1.4-0.1,2l4.8,6.2
		c-0.6,1.2-1.2,2.5-1.6,3.9l-7.8,1c-0.8,0.1-1.4,0.8-1.4,1.5V460c0,0.8,0.6,1.4,1.4,1.5l7.8,1c0.2,0.7,0.5,1.4,0.8,2.1h-13
		c-2.6,0-4.6-2.1-4.6-4.6v-69.5h86.5V460C-139.2,462.6-141.3,464.7-143.9,464.7z"/>
	<path fill="#FFFFFF" d="M-219.5,383.3c0,0.1,0.1,0.2,0.1,0.3c0.1,0.1,0.1,0.2,0.2,0.2c0.1,0.1,0.3,0.3,0.5,0.3
		c0.2,0.1,0.4,0.1,0.6,0.1c0.1,0,0.2,0,0.3,0c0.1,0,0.2,0,0.3-0.1c0.1,0,0.2-0.1,0.3-0.1c0.1-0.1,0.2-0.1,0.2-0.2
		c0.1-0.1,0.1-0.2,0.2-0.2c0.1-0.1,0.1-0.2,0.1-0.3c0-0.1,0.1-0.2,0.1-0.3c0-0.1,0-0.2,0-0.3c0-0.4-0.2-0.8-0.4-1.1
		c-0.1-0.1-0.2-0.1-0.2-0.2c-0.1-0.1-0.2-0.1-0.3-0.1c-0.1,0-0.2-0.1-0.3-0.1c-0.5-0.1-1,0.1-1.4,0.4c-0.3,0.3-0.4,0.7-0.4,1.1
		c0,0.1,0,0.2,0,0.3C-219.5,383.2-219.5,383.3-219.5,383.3z"/>
	<path fill="#FFFFFF" d="M-213.3,383.3c0,0.1,0.1,0.2,0.1,0.3c0.1,0.1,0.1,0.2,0.2,0.2c0.1,0.1,0.2,0.1,0.2,0.2
		c0.1,0.1,0.2,0.1,0.3,0.1c0.1,0,0.2,0.1,0.3,0.1c0.1,0,0.2,0,0.3,0c0.1,0,0.2,0,0.3,0c0.1,0,0.2,0,0.3-0.1c0.2-0.1,0.4-0.2,0.5-0.3
		c0.3-0.3,0.4-0.7,0.4-1.1c0-0.2,0-0.4-0.1-0.6c-0.1-0.2-0.2-0.4-0.3-0.5c-0.1-0.1-0.2-0.1-0.2-0.2c-0.1-0.1-0.2-0.1-0.3-0.1
		c-0.1,0-0.2-0.1-0.3-0.1c-0.5-0.1-1,0.1-1.4,0.4c-0.1,0.1-0.3,0.3-0.3,0.5c-0.1,0.2-0.1,0.4-0.1,0.6c0,0.1,0,0.2,0,0.3
		C-213.4,383.2-213.3,383.3-213.3,383.3z"/>
	<path fill="#FFFFFF" d="M-206.3,384.2c0.2,0.1,0.4,0.1,0.6,0.1c0.6,0,1.2-0.4,1.4-1c0.2-0.6,0.1-1.2-0.3-1.7
		c-0.4-0.4-1.1-0.6-1.7-0.3c-0.6,0.2-1,0.8-1,1.4c0,0.4,0.2,0.8,0.4,1.1C-206.6,384-206.5,384.1-206.3,384.2z"/>
	<path fill="#FFFFFF" d="M-216.5,399.8h6.2v3.1h-6.2V399.8z"/>
	<path fill="#FFFFFF" d="M-207.2,399.8h3.1v3.1h-3.1V399.8z"/>
	<path fill="#FFFFFF" d="M-216.5,405.9h12.4v3.1h-12.4V405.9z"/>
	<path fill="#FFFFFF" d="M-208.8,412.1h-3.1v9.3c0,0.4,0.2,0.8,0.5,1.1l3.1,3.1l2.2-2.2l-2.6-2.6V412.1z"/>
	<path fill="#FFFFFF" d="M-160.9,399.8h9.3v3.1h-9.3V399.8z"/>
	<path fill="#FFFFFF" d="M-167,405.9h15.5v3.1H-167V405.9z"/>
	<path fill="#FFFFFF" d="M-167,412.1h15.5v3.1H-167V412.1z"/>
	<path fill="#FFFFFF" d="M-167,399.8h3.1v3.1h-3.1V399.8z"/>
</g>
</svg>
