<?xml version="1.0" encoding="utf-8"?>
<!-- Generator: Adobe Illustrator 18.1.0, SVG Export Plug-In . SVG Version: 6.00 Build 0)  -->
<svg version="1.1" id="Layer_1" xmlns="http://www.w3.org/2000/svg" xmlns:xlink="http://www.w3.org/1999/xlink" x="0px" y="0px"
	 width="115px" height="115px" viewBox="-240 363.9 115 115" enable-background="new -240 363.9 115 115" xml:space="preserve">
<g>
	<g>
		<g>
			<path fill="#FFFFFF" d="M-145.1,372.1c-0.1,0-0.3,0-0.4,0c-12.5,2.6-25.5,0.3-36.3-6.4l-2.5-1.6c-0.6-0.4-1.4-0.4-2,0l-2.5,1.6
				c-10.9,6.7-23.8,9-36.3,6.4c-1-0.2-2,0.5-2.3,1.5c0,0.1,0,0.3,0,0.4V433c0,7.6,2,15,5.8,21.5c4.4,7.5,11,13.5,19,17l16.6,7.3
				c0.5,0.2,1,0.2,1.5,0l16.6-7.3c0.9-0.4,1.8-0.9,2.7-1.3c0.9-0.5,1.3-1.7,0.8-2.6s-1.7-1.3-2.6-0.8c-0.8,0.4-1.6,0.8-2.5,1.2
				l-15.8,6.9l-15.8-6.9c-7.2-3.2-13.3-8.6-17.3-15.4c-3.5-5.9-5.3-12.7-5.3-19.6v-56.6c12.8,2,25.8-0.6,36.8-7.3l1.5-0.9l1.5,0.9
				c11,6.8,24.1,9.4,36.8,7.3V433c0,1.1,0.9,1.9,1.9,1.9s1.9-0.9,1.9-1.9V374C-143.2,373-144,372.1-145.1,372.1z"/>
		</g>
	</g>
	<g>
		<g>
			<path fill="#FFFFFF" d="M-185.5,378.3c-0.5-0.9-1.7-1.3-2.6-0.8c0,0-0.1,0.1-0.1,0.1c-8.8,5.2-19.3,6.9-29.3,5
				c-1-0.2-2,0.5-2.3,1.5c0,0.1,0,0.3,0,0.4v45.8c0,6,1.7,11.9,4.8,17c3.7,6,9.1,10.7,15.6,13.3c1,0.4,2.1-0.1,2.5-1
				c0.4-1-0.1-2.1-1-2.5c-5.7-2.4-10.6-6.5-13.8-11.8c-2.8-4.5-4.2-9.7-4.2-15v-43.5c10.3,1.5,20.8-0.6,29.7-5.8
				C-185.3,380.4-185,379.2-185.5,378.3z"/>
		</g>
	</g>
	<g>
		<g>
			<path fill="#FFFFFF" d="M-138.2,460.3c-0.7-0.6-1.8-0.6-2.5,0l-9.2,9.2c-0.6-0.2-1.3-0.2-2,0l-16.8-16.8c-0.8-0.7-2-0.7-2.7,0
				c-0.7,0.7-0.7,1.9,0,2.7l16.8,16.8c-0.6,2,0.6,4.1,2.6,4.7c0.3,0.1,0.7,0.1,1.1,0.1c2.1,0,3.8-1.7,3.8-3.8c0-0.3-0.1-0.7-0.1-1
				l9.2-9.2C-137.3,462.2-137.4,461-138.2,460.3z"/>
		</g>
	</g>
	<g>
		<g>
			<path fill="#FFFFFF" d="M-155.2,406.6l-7.7-7.7c-0.7-0.7-2-0.7-2.7,0l-23.6,23.6l-6.3-6.3c-0.7-0.7-2-0.7-2.7,0l-7.7,7.7
				c-0.7,0.7-0.7,2,0,2.7l15.3,15.3c0.4,0.4,0.8,0.6,1.4,0.6c0.5,0,1-0.2,1.4-0.6l32.6-32.6C-154.5,408.6-154.5,407.4-155.2,406.6z
				 M-189.2,437.8l-12.6-12.6l4.9-5l6.3,6.3c0.7,0.7,2,0.7,2.7,0l23.5-23.6l5,5L-189.2,437.8z"/>
		</g>
	</g>
</g>
</svg>
