<svg width="300" height="55" viewBox="0 0 300 55" fill="none" xmlns="http://www.w3.org/2000/svg">
<g clip-path="url(#clip0)">
<path d="M42.0552 38.2431C41.9247 38.2431 41.8159 38.2431 41.6854 38.2648C39.7926 38.439 38.3131 40.1367 38.3131 42.0957V46.9495H14.3375L27.783 32.105C30.0022 29.6454 30.5461 26.1193 29.1537 23.0938L24.2367 12.472C23.6275 11.166 22.3004 10.3171 20.8644 10.3171C20.2118 10.3171 19.5591 10.4913 18.9716 10.8178C17.3399 11.7755 16.6872 13.9303 17.5357 15.7151L21.6912 24.7045C22.2569 25.9234 22.0393 27.3382 21.1473 28.3177L3.17643 48.1684C1.93632 49.5397 1.8928 51.6075 3.06765 53.044C3.76386 53.8929 4.85168 54.3935 6.04829 54.3935H42.077C44.1221 54.3935 45.7974 52.7175 45.7974 50.6715V41.9651C45.7974 39.919 44.1221 38.2431 42.0552 38.2431Z" fill="url(#paint0_linear)"/>
<path d="M42.0554 0H3.72047C2.45859 0 1.28375 0.631217 0.609295 1.69776C-0.0869124 2.7643 -0.173938 4.09203 0.326461 5.24563L8.855 25.1616L1.00091 33.6504C-0.391503 35.1523 -0.304477 37.5248 1.19672 38.9178C1.89293 39.549 2.78494 39.919 3.72047 39.919C4.76478 39.919 5.74382 39.4837 6.46179 38.7219L15.9911 28.4265C17.0137 27.3382 17.2748 25.7493 16.6656 24.378L9.46418 7.44401H38.335V12.4284C38.335 14.4745 40.0103 16.1505 42.0554 16.1505C44.1005 16.1505 45.7757 14.4745 45.7757 12.4284V3.722C45.7975 1.67599 44.1222 0 42.0554 0Z" fill="url(#paint1_linear)"/>
<path d="M75.6235 11.4054L63.1353 40.8115C62.8742 41.5515 62.4609 42.1174 61.8952 42.5092C61.3295 42.9228 60.7204 43.1187 60.0677 43.1187C59.0234 43.1187 58.2619 42.8357 57.7615 42.248C57.2611 41.6603 57 40.9638 57 40.1149C57 39.7667 57.0653 39.3967 57.174 39.0049L71.5768 4.39676C71.8814 3.63494 72.3601 3.02549 72.991 2.61193C73.6219 2.19838 74.3181 2.02425 75.0361 2.08955C75.7323 2.08955 76.385 2.28544 76.9724 2.699C77.5599 3.11255 77.995 3.67847 78.2778 4.39676L92.5066 38.3301C92.7024 38.8307 92.7894 39.2878 92.7894 39.7232C92.7894 40.7679 92.4413 41.595 91.7668 42.2045C91.0924 42.8139 90.3527 43.1404 89.5477 43.1404C88.8515 43.1404 88.2205 42.9228 87.6766 42.5092C87.111 42.0957 86.6758 41.508 86.3712 40.7679L73.9483 11.7537L75.6235 11.4054ZM64.9194 33.7592L68.0958 27.0988H83.7169L84.8265 33.7592H64.9194Z" fill="#3699FF"/>
<path d="M122.204 0C123.205 0 124.032 0.326492 124.684 0.979475C125.337 1.63246 125.663 2.48134 125.663 3.52611V39.3096C125.663 40.3108 125.337 41.1597 124.684 41.8345C124.032 42.5092 123.205 42.8575 122.204 42.8575C121.203 42.8575 120.377 42.5092 119.724 41.8345C119.071 41.1597 118.745 40.3108 118.745 39.3096V36.48L120.029 37.0024C120.029 37.503 119.767 38.1125 119.224 38.8307C118.68 39.549 117.94 40.2455 117.026 40.9421C116.112 41.6386 115.003 42.2263 113.763 42.7051C112.501 43.184 111.152 43.4234 109.694 43.4234C107.04 43.4234 104.625 42.7486 102.471 41.3774C100.317 40.0061 98.5984 38.1125 97.3582 35.6964C96.0964 33.2804 95.4872 30.5161 95.4872 27.3818C95.4872 24.2257 96.1181 21.4396 97.3582 19.0236C98.6201 16.6075 100.295 14.7139 102.428 13.3426C104.538 11.9714 106.909 11.2966 109.477 11.2966C111.13 11.2966 112.653 11.5578 114.045 12.0584C115.438 12.559 116.634 13.1903 117.657 13.9738C118.68 14.7357 119.463 15.5192 120.029 16.3246C120.594 17.1082 120.877 17.7829 120.877 18.3271L118.788 19.0889V3.52611C118.788 2.52487 119.115 1.67599 119.767 1.00124C120.377 0.348258 121.203 0 122.204 0ZM110.521 37.0459C112.218 37.0459 113.697 36.6324 114.981 35.7617C116.265 34.9128 117.244 33.7592 117.962 32.2791C118.68 30.8208 119.028 29.1666 119.028 27.36C119.028 25.5099 118.68 23.8557 117.962 22.3756C117.244 20.9172 116.265 19.7419 114.981 18.893C113.697 18.0441 112.218 17.6088 110.521 17.6088C108.867 17.6088 107.388 18.0441 106.126 18.893C104.842 19.7419 103.863 20.8955 103.145 22.3756C102.428 23.8339 102.079 25.5099 102.079 27.36C102.079 29.1666 102.428 30.8208 103.145 32.2791C103.863 33.7375 104.842 34.9128 106.126 35.7617C107.388 36.6324 108.867 37.0459 110.521 37.0459Z" fill="#3699FF"/>
<path d="M146.789 43.4234C144.091 43.4234 141.654 43.0751 139.501 42.4004C137.347 41.7256 135.28 40.5285 133.3 38.8307C132.8 38.4172 132.408 37.9166 132.147 37.3942C131.886 36.85 131.733 36.3059 131.733 35.7835C131.733 34.8911 132.06 34.1075 132.691 33.4327C133.322 32.758 134.127 32.4097 135.084 32.4097C135.824 32.4097 136.476 32.6492 137.042 33.1063C138.5 34.3034 139.957 35.2176 141.415 35.827C142.851 36.4365 144.635 36.763 146.767 36.763C148.203 36.763 149.509 36.5453 150.705 36.0882C151.902 35.6529 152.859 35.0434 153.599 34.3034C154.338 33.5416 154.708 32.6927 154.708 31.735C154.708 30.5814 154.36 29.6019 153.664 28.7748C152.968 27.9477 151.902 27.2729 150.488 26.7288C149.052 26.1629 147.246 25.7275 145.048 25.4228C142.96 25.1181 141.132 24.6392 139.544 24.008C137.956 23.3768 136.65 22.5715 135.584 21.5702C134.518 20.5907 133.713 19.4371 133.191 18.0876C132.647 16.7599 132.386 15.258 132.386 13.6038C132.386 11.1007 133.039 8.94587 134.323 7.18282C135.606 5.398 137.368 4.0485 139.566 3.13432C141.763 2.19838 144.2 1.74129 146.854 1.74129C149.356 1.74129 151.684 2.11131 153.816 2.87313C155.948 3.63494 157.711 4.57088 159.06 5.74625C160.169 6.63866 160.735 7.66167 160.735 8.81527C160.735 9.66415 160.409 10.426 159.756 11.1225C159.103 11.819 158.32 12.1673 157.45 12.1673C156.862 12.1673 156.34 11.9931 155.883 11.6449C155.274 11.1007 154.447 10.6001 153.403 10.1212C152.359 9.64239 151.271 9.22883 150.096 8.90234C148.943 8.57585 147.855 8.40172 146.854 8.40172C145.201 8.40172 143.787 8.61938 142.655 9.03294C141.524 9.46826 140.654 10.0342 140.088 10.7742C139.501 11.5143 139.218 12.3632 139.218 13.3209C139.218 14.4745 139.544 15.4322 140.24 16.194C140.915 16.9558 141.894 17.5435 143.156 17.9788C144.439 18.4141 145.962 18.8277 147.724 19.1759C150.031 19.6113 152.076 20.1119 153.838 20.6778C155.6 21.2655 157.058 22.0055 158.211 22.8979C159.364 23.8121 160.234 24.944 160.822 26.3152C161.409 27.6865 161.692 29.3625 161.692 31.3214C161.692 33.8245 160.996 36.0011 159.604 37.8077C158.211 39.6143 156.384 41.0073 154.143 41.9651C151.858 42.9228 149.421 43.4234 146.789 43.4234Z" fill="#0BB7AF"/>
<path d="M170.743 8.09699C169.437 8.09699 168.502 7.87933 167.958 7.46578C167.414 7.05222 167.153 6.29041 167.153 5.2021V4.09203C167.153 2.98196 167.458 2.22014 168.045 1.80659C168.632 1.39303 169.568 1.19714 170.786 1.19714C172.135 1.19714 173.071 1.4148 173.615 1.82835C174.159 2.26368 174.42 3.00372 174.42 4.09203V5.2021C174.42 6.31217 174.137 7.07399 173.549 7.48754C173.006 7.9011 172.07 8.09699 170.743 8.09699ZM174.289 39.3096C174.289 40.3108 173.963 41.1597 173.31 41.8345C172.657 42.5092 171.831 42.8575 170.83 42.8575C169.829 42.8575 169.002 42.5092 168.35 41.8345C167.697 41.1597 167.371 40.3108 167.371 39.3096V15.3886C167.371 14.3874 167.697 13.5385 168.35 12.8638C169.002 12.189 169.829 11.8408 170.83 11.8408C171.831 11.8408 172.657 12.189 173.31 12.8638C173.963 13.5385 174.289 14.3874 174.289 15.3886V39.3096Z" fill="#0BB7AF"/>
<path d="M193.957 11.2966C195.567 11.2966 197.068 11.5578 198.417 12.0584C199.766 12.559 200.941 13.1903 201.92 13.9738C202.899 14.7357 203.682 15.5192 204.226 16.3246C204.792 17.1082 205.075 17.7829 205.075 18.3271L203.573 19.0889V14.8227C203.573 13.8215 203.9 12.9726 204.552 12.2979C205.205 11.6231 206.032 11.2748 207.033 11.2748C208.033 11.2748 208.86 11.6013 209.513 12.2543C210.166 12.9073 210.492 13.7562 210.492 14.801V40.572C210.492 43.924 209.774 46.623 208.316 48.6473C206.88 50.6715 204.966 52.1298 202.616 53.044C200.266 53.9582 197.743 54.3935 195.045 54.3935C194.283 54.3935 193.261 54.3065 192.042 54.1106C190.802 53.9147 189.627 53.6752 188.518 53.414C187.408 53.1528 186.56 52.8917 185.972 52.6522C184.819 52.1516 184.014 51.5204 183.579 50.7803C183.144 50.0185 183.057 49.2349 183.318 48.3861C183.666 47.276 184.232 46.5142 184.993 46.1006C185.755 45.6871 186.582 45.6435 187.43 45.9483C187.822 46.0571 188.453 46.2965 189.345 46.6448C190.237 46.993 191.216 47.3195 192.26 47.6025C193.326 47.8854 194.262 48.0378 195.067 48.0378C197.96 48.0378 200.092 47.4501 201.485 46.2965C202.877 45.1429 203.573 43.5322 203.573 41.4862V36.4582L204.27 36.9806C204.27 37.4812 204.008 38.0907 203.486 38.809C202.964 39.5273 202.246 40.2238 201.354 40.9203C200.44 41.6168 199.374 42.2045 198.134 42.6833C196.894 43.1622 195.589 43.4016 194.196 43.4016C191.455 43.4016 188.997 42.7269 186.799 41.3556C184.602 39.9843 182.861 38.0907 181.599 35.6747C180.316 33.2586 179.685 30.4943 179.685 27.36C179.685 24.2039 180.316 21.4179 181.599 19.0018C182.883 16.5858 184.58 14.6921 186.756 13.3209C188.888 11.9714 191.281 11.2966 193.957 11.2966ZM195.045 17.6523C193.304 17.6523 191.781 18.0876 190.476 18.9365C189.171 19.7854 188.148 20.939 187.408 22.4191C186.669 23.8774 186.299 25.5534 186.299 27.4035C186.299 29.2101 186.669 30.8643 187.408 32.3227C188.148 33.781 189.171 34.9564 190.476 35.8053C191.781 36.6541 193.304 37.0895 195.045 37.0895C196.829 37.0895 198.352 36.6759 199.679 35.8053C200.984 34.9564 202.007 33.8028 202.747 32.3227C203.486 30.8643 203.856 29.2101 203.856 27.4035C203.856 25.5534 203.486 23.8992 202.747 22.4191C202.007 20.9608 200.984 19.7854 199.679 18.9365C198.374 18.0876 196.829 17.6523 195.045 17.6523Z" fill="#0BB7AF"/>
<path d="M234.272 11.2966C237.361 11.2966 239.624 12.0367 241.103 13.5168C242.561 14.9969 243.54 16.9123 243.997 19.2848L243.018 18.7624L243.475 17.8264C243.932 16.934 244.65 15.9763 245.607 14.9533C246.564 13.9303 247.739 13.0597 249.11 12.3414C250.48 11.6231 252.003 11.2748 253.7 11.2748C256.485 11.2748 258.595 11.8843 260.031 13.0597C261.467 14.2568 262.468 15.8457 263.012 17.8264C263.556 19.8072 263.817 22.0273 263.817 24.4651V39.2878C263.817 40.2891 263.491 41.138 262.838 41.8127C262.185 42.4875 261.359 42.8357 260.358 42.8357C259.357 42.8357 258.53 42.4875 257.878 41.8127C257.225 41.138 256.898 40.2891 256.898 39.2878V24.4651C256.898 23.1809 256.746 22.0491 256.442 21.0261C256.137 20.0031 255.571 19.1759 254.766 18.5665C253.961 17.957 252.808 17.6306 251.285 17.6306C249.828 17.6306 248.566 17.9353 247.521 18.5665C246.477 19.1759 245.694 20.0031 245.172 21.0261C244.65 22.0491 244.389 23.2027 244.389 24.4651V39.2878C244.389 40.2891 244.062 41.138 243.409 41.8127C242.757 42.4875 241.93 42.8357 240.929 42.8357C239.928 42.8357 239.102 42.4875 238.449 41.8127C237.796 41.138 237.47 40.2891 237.47 39.2878V24.4651C237.47 23.1809 237.318 22.0491 237.013 21.0261C236.708 20.0031 236.143 19.1759 235.338 18.5665C234.533 17.957 233.38 17.6306 231.857 17.6306C230.399 17.6306 229.137 17.9353 228.093 18.5665C227.049 19.1759 226.265 20.0031 225.743 21.0261C225.221 22.0491 224.96 23.2027 224.96 24.4651V39.2878C224.96 40.2891 224.634 41.138 223.981 41.8127C223.328 42.4875 222.502 42.8357 221.501 42.8357C220.5 42.8357 219.673 42.4875 219.02 41.8127C218.368 41.138 218.041 40.2891 218.041 39.2878V15.3886C218.041 14.3874 218.368 13.5385 219.02 12.8638C219.673 12.189 220.5 11.8408 221.501 11.8408C222.502 11.8408 223.328 12.189 223.981 12.8638C224.634 13.5385 224.96 14.3874 224.96 15.3886V17.87L224.09 17.6958C224.438 17.0429 224.916 16.3246 225.526 15.5845C226.135 14.8227 226.896 14.1262 227.788 13.4732C228.68 12.8202 229.659 12.2761 230.747 11.8843C231.835 11.4925 233.01 11.2966 234.272 11.2966Z" fill="#0BB7AF"/>
<path d="M296.43 11.2966C297.431 11.2966 298.258 11.6231 298.91 12.2761C299.563 12.9291 299.889 13.7779 299.889 14.8227V39.3096C299.889 40.3108 299.563 41.1597 298.91 41.8345C298.258 42.5092 297.431 42.8575 296.43 42.8575C295.429 42.8575 294.602 42.5092 293.95 41.8345C293.297 41.1597 292.971 40.3108 292.971 39.3096V36.48L294.254 37.0024C294.254 37.503 293.993 38.1125 293.449 38.8307C292.905 39.549 292.166 40.2455 291.252 40.942C290.338 41.6386 289.229 42.2262 287.988 42.7051C286.727 43.184 285.378 43.4234 283.898 43.4234C281.244 43.4234 278.829 42.7486 276.675 41.3774C274.521 40.0061 272.802 38.1125 271.562 35.6964C270.301 33.2804 269.691 30.5161 269.691 27.3818C269.691 24.2257 270.322 21.4396 271.562 19.0236C272.824 16.6075 274.5 14.7139 276.632 13.3426C278.742 11.9714 281.113 11.2966 283.681 11.2966C285.334 11.2966 286.857 11.5578 288.25 12.0584C289.642 12.559 290.839 13.1903 291.861 13.9738C292.884 14.7357 293.667 15.5192 294.233 16.3246C294.798 17.1082 295.081 17.7829 295.081 18.3271L292.992 19.0889V14.8227C292.992 13.8215 293.319 12.9726 293.972 12.2979C294.602 11.6231 295.429 11.2966 296.43 11.2966ZM284.747 37.0459C286.444 37.0459 287.923 36.6324 289.207 35.7617C290.49 34.9128 291.47 33.7592 292.187 32.2791C292.905 30.8208 293.254 29.1666 293.254 27.36C293.254 25.5099 292.905 23.8557 292.187 22.3756C291.47 20.9172 290.49 19.7419 289.207 18.893C287.923 18.0441 286.444 17.6088 284.747 17.6088C283.093 17.6088 281.614 18.0441 280.352 18.893C279.068 19.7419 278.089 20.8955 277.371 22.3756C276.653 23.8339 276.305 25.5099 276.305 27.36C276.305 29.1666 276.653 30.8208 277.371 32.2791C278.089 33.7375 279.068 34.9128 280.352 35.7617C281.614 36.6324 283.072 37.0459 284.747 37.0459Z" fill="#0BB7AF"/>
</g>
<defs>
<linearGradient id="paint0_linear" x1="-2.31551" y1="33.3448" x2="54.5042" y2="31.7096" gradientUnits="userSpaceOnUse">
<stop stop-color="#187DE4"/>
<stop offset="0.4921" stop-color="#298DF3"/>
<stop offset="1" stop-color="#3699FF"/>
</linearGradient>
<linearGradient id="paint1_linear" x1="-2.69543" y1="20.1401" x2="54.1241" y2="18.5049" gradientUnits="userSpaceOnUse">
<stop stop-color="#187DE4"/>
<stop offset="0.4921" stop-color="#298DF3"/>
<stop offset="1" stop-color="#3699FF"/>
</linearGradient>
<clipPath id="clip0">
<rect width="300" height="54.4153" fill="white"/>
</clipPath>
</defs>
</svg>
